<svg width="43.000000" height="43.000000" viewBox="0 0 43 43" fill="none" xmlns="http://www.w3.org/2000/svg" xmlns:xlink="http://www.w3.org/1999/xlink">
	<desc>
			Created with Pixso.
	</desc>
	<defs>
		<clipPath id="clip34_1136">
			<rect id="ic-whatsapp" width="43.000000" height="43.000000" fill="white" fill-opacity="0"/>
		</clipPath>
	</defs>
	<rect id="ic-whatsapp" width="43.000000" height="43.000000" fill="#FFFFFF" fill-opacity="0"/>
	<g clip-path="url(#clip34_1136)">
		<path id="Vector" d="M21.959 3C11.4824 3 2.95898 11.5228 2.95898 22C2.95898 25.6862 4.01587 29.2401 6.02246 32.3263L3.06177 39.2348C2.85767 39.7098 2.96387 40.2628 3.33008 40.6289C3.57251 40.8713 3.89673 41 4.22559 41C4.3938 41 4.56396 40.9666 4.72485 40.8973L11.6333 37.936C14.719 39.9436 18.2727 41 21.959 41C32.4363 41 40.959 32.4772 40.959 22C40.959 11.5228 32.4363 3 21.959 3ZM31.7114 28.8009C31.7114 28.8009 30.1316 30.8271 28.99 31.3008C26.0881 32.502 21.9912 31.3008 17.324 26.6349C12.6582 21.9678 11.4563 17.871 12.6582 14.969C13.1318 13.826 15.158 12.2477 15.158 12.2477C15.7073 11.8197 16.5608 11.8729 17.0532 12.3652L19.3452 14.6573C19.8376 15.1496 19.8376 15.9561 19.3452 16.4484L17.9067 17.8858C17.9067 17.8858 17.324 19.6349 20.8235 23.1356C24.3228 26.6349 26.0732 26.0523 26.0732 26.0523L27.5105 24.6137C28.0029 24.1214 28.8093 24.1214 29.3018 24.6137L31.5938 26.9059C32.0862 27.3982 32.1394 28.2505 31.7114 28.8009Z" fill="#282828" fill-opacity="1.000000" fill-rule="nonzero"/>
	</g>
</svg>
